<?xml version="1.0" encoding="UTF-8" standalone="no"?><!DOCTYPE svg PUBLIC "-//W3C//DTD SVG 1.1//EN" "http://www.w3.org/Graphics/SVG/1.1/DTD/svg11.dtd"><svg width="100%" height="100%" viewBox="0 0 304 347" version="1.1" xmlns="http://www.w3.org/2000/svg" xmlns:xlink="http://www.w3.org/1999/xlink" xml:space="preserve" xmlns:serif="http://www.serif.com/" style="fill-rule:evenodd;clip-rule:evenodd;stroke-linejoin:round;stroke-miterlimit:1.41421;"><path d="M46.7,315.939l27.4,-90.48l-37.57,0l-36.53,120.641l75.49,0l9.13,-30.161l-37.92,0Z" style="fill:#231f20;fill-rule:nonzero;"/><path d="M160.51,266.147c2.46,1.099 5.01,2.235 7.62,3.402c2.6,1.213 5.23,2.522 7.94,3.826c1.35,0.665 2.71,1.338 4.09,2.017c0.73,0.385 1.48,0.78 2.23,1.169l10.81,-16.997c-1.13,-0.673 -2.25,-1.339 -3.34,-1.995c-2,-1.231 -4.02,-2.288 -5.92,-3.435c-1.9,-1.117 -3.73,-2.22 -5.53,-3.21c-3.57,-2.013 -6.85,-3.861 -9.76,-5.498c-1.31,-0.723 -2.54,-1.399 -3.7,-2.037l-10.3,20.309c1.9,0.774 3.87,1.557 5.86,2.449Z" style="fill:#231f20;fill-rule:nonzero;"/><path d="M120.57,305.121c-1.06,-0.546 -1.63,-0.835 -1.63,-0.835c0,0 0.61,0.182 1.76,0.525c0.57,0.176 1.27,0.394 2.1,0.649c0.83,0.249 1.78,0.547 2.83,0.939c2.01,0.738 4.51,1.559 7.25,2.692l2.93,-9.697l6.9,0l-1.14,13.333c0.42,0.186 0.82,0.366 1.25,0.554c1.76,0.764 3.56,1.611 5.43,2.496c1.87,0.875 3.8,1.794 5.75,2.787c3.9,2.026 8.07,4.047 12.22,6.437c4.2,2.298 8.46,4.818 12.79,7.383c0.41,0.247 0.81,0.507 1.21,0.758l0.62,-2.037l-0.85,-19.586c-1.31,-0.793 -2.62,-1.58 -3.9,-2.354c-2.1,-1.322 -4.2,-2.515 -6.25,-3.7c-4.05,-2.435 -7.97,-4.57 -11.56,-6.632c-1.81,-0.994 -3.55,-1.948 -5.2,-2.855c-1.64,-0.949 -3.23,-1.766 -4.71,-2.57c-2.98,-1.585 -5.58,-2.966 -7.72,-4.106c-2.16,-1.136 -3.86,-2.027 -5.01,-2.637c-1.15,-0.623 -1.77,-0.955 -1.77,-0.955c0,0 0.68,0.165 1.95,0.475c1.26,0.344 3.14,0.749 5.48,1.465c1.17,0.345 2.47,0.726 3.89,1.142c1.42,0.406 2.91,0.959 4.53,1.488c1.61,0.55 3.34,1.102 5.13,1.771c1.79,0.676 3.67,1.387 5.63,2.13c3.88,1.604 8.1,3.318 12.45,5.383c2.19,0.995 4.42,2.081 6.68,3.224l-0.89,-20.456l0.03,-0.051c-0.58,-0.344 -1.18,-0.691 -1.76,-1.033c-1.32,-0.737 -2.63,-1.468 -3.92,-2.189c-2.59,-1.455 -5.11,-2.912 -7.59,-4.27c-4.56,-2.449 -8.86,-4.841 -12.93,-6.969l-0.71,1.415l-6.9,0l1.41,-4.636c-0.41,-0.206 -0.83,-0.426 -1.23,-0.622c-2.01,-1.03 -3.91,-2.005 -5.71,-2.924c-3.61,-1.776 -6.77,-3.324 -9.37,-4.598c-2.61,-1.271 -4.66,-2.269 -6.06,-2.949c-1.39,-0.706 -2.13,-1.082 -2.13,-1.082c0,0 0.8,0.23 2.29,0.663c1.5,0.448 3.7,1.024 6.47,1.913c2.79,0.84 6.15,1.954 9.98,3.291c1.9,0.696 3.93,1.437 6.07,2.219c0.27,0.101 0.55,0.217 0.83,0.321l7,-23.117c-0.05,-0.026 -0.08,-0.041 -0.08,-0.041c0,0 0.03,0.009 0.08,0.022l3.71,-12.236l-37.57,0l-36.53,120.641l37.57,0l10.56,-34.877c-2.7,-1.493 -5.08,-2.718 -7.04,-3.758c-1.97,-1.043 -3.55,-1.8 -4.62,-2.344Z" style="fill:#231f20;fill-rule:nonzero;"/><path d="M163.6,329.495c-2.03,-1.218 -3.99,-2.486 -5.95,-3.645c-1.96,-1.174 -3.87,-2.323 -5.74,-3.439c-1.88,-1.092 -3.7,-2.155 -5.47,-3.184c-1.76,-1.043 -3.47,-2.044 -5.13,-2.957c-0.01,-0.005 -0.03,-0.013 -0.04,-0.02l-2.54,29.85l37.57,0l2.18,-7.206c-0.84,-0.547 -1.68,-1.096 -2.52,-1.624c-4.2,-2.656 -8.29,-5.35 -12.36,-7.775Z" style="fill:#231f20;fill-rule:nonzero;"/><path d="M174.71,245.11c1.74,0.724 3.55,1.543 5.44,2.368c3.78,1.676 7.86,3.547 12.1,5.664c1.25,0.629 2.52,1.271 3.81,1.92l9.3,-14.609l4.54,-14.994l-35.85,0l-8.19,16.131c1.23,0.455 2.52,0.948 3.89,1.514c1.56,0.63 3.22,1.299 4.96,2.006Z" style="fill:#231f20;fill-rule:nonzero;"/><path d="M229.46,282.432c-2.23,-1.561 -4.55,-2.985 -6.82,-4.477c-2.28,-1.466 -4.51,-3.01 -6.79,-4.416c-2.05,-1.279 -4.071,-2.562 -6.08,-3.829l-5.72,18.892c1.86,1.092 3.72,2.2 5.55,3.378c2.81,1.769 5.63,3.545 8.45,5.32c5.62,3.572 11.05,7.436 16.47,11.123c0.35,0.25 0.69,0.503 1.04,0.754l5.67,-18.727c-3.85,-2.711 -7.84,-5.316 -11.77,-8.018Z" style="fill:#231f20;fill-rule:nonzero;"/><path d="M244.759,315.939c1.761,1.316 3.511,2.625 5.23,3.915c2.5,1.868 4.851,3.84 7.201,5.715c2.319,1.89 4.6,3.74 6.819,5.542c1.111,0.905 2.201,1.796 3.27,2.676c1,0.879 1.98,1.745 2.951,2.598l6.1,-20.127c-0.14,-0.106 -0.27,-0.211 -0.401,-0.319l-31.17,0Z" style="fill:#231f20;fill-rule:nonzero;"/><path d="M233.23,276.77c2.279,1.56 4.56,3.12 6.83,4.673c1.07,0.746 2.159,1.468 3.219,2.23l8.44,-27.882l37.051,0l10.509,-15.338l4.541,-14.994l-65.49,0c-8.96,0 -17.04,6.204 -19.7,14.994l-6.97,23.003c2.53,1.464 5.079,2.977 7.66,4.493c4.64,2.828 9.31,5.78 13.91,8.821Z" style="fill:#231f20;fill-rule:nonzero;"/><path d="M264,337.978c-1.13,-0.794 -2.27,-1.599 -3.43,-2.417c-4.621,-3.284 -9.49,-6.747 -14.52,-10.328c-5.101,-3.488 -10.36,-7.092 -15.71,-10.756c-2.71,-1.779 -5.43,-3.573 -8.17,-5.373c-2.741,-1.8 -5.44,-3.683 -8.25,-5.392c-4.07,-2.536 -8.09,-5.15 -12.13,-7.658l-4.9,16.192c1.19,0.729 2.38,1.472 3.59,2.196c2.35,1.43 4.72,2.885 7.029,4.45c2.321,1.537 4.651,3.087 6.971,4.665c2.29,1.597 4.549,3.243 6.81,4.877c2.25,1.645 4.5,3.263 6.659,4.976c4.321,3.403 8.611,6.704 12.551,10.159c1.009,0.846 2,1.691 2.969,2.531l23.821,0l1.409,-4.644c-0.48,-0.353 -0.949,-0.698 -1.44,-1.056c-1.069,-0.795 -2.159,-1.602 -3.259,-2.422Z" style="fill:#231f20;fill-rule:nonzero;"/><path d="M216.34,335.351c-2.25,-1.552 -4.47,-3.169 -6.74,-4.71c-4.58,-3.015 -9.07,-6.176 -13.64,-9.053c-0.53,-0.352 -1.06,-0.689 -1.58,-1.036l-3.2,10.553c-1.06,3.516 -0.99,6.605 0.03,9.062c0.21,0.146 0.44,0.286 0.65,0.433c2.64,1.751 5.26,3.54 7.83,5.358c0.68,0.083 1.37,0.142 2.12,0.142l29.54,0c-2.73,-1.999 -5.53,-3.997 -8.341,-6.038c-2.159,-1.626 -4.419,-3.155 -6.669,-4.711Z" style="fill:#231f20;fill-rule:nonzero;"/><path d="M145.72,165.767l4.92,-11.354c-3.54,-0.199 -7.03,-0.724 -10.46,-1.408c-5.26,-1.14 -10.31,-2.795 -15.26,-4.622c-1.57,-0.583 -3.14,-1.184 -4.7,-1.792l-0.78,0.854l-6.16,6.681l5.86,8.11l-0.52,25.866c-0.81,0.014 -1.34,-0.003 -1.34,-0.003l-19.84,-2.655l-6.18,17.161l32.89,-0.025l0.03,-0.123l5.63,0c0,0 5.7,-19.022 11.36,-26.96c2.08,-2.925 7.9,-4.638 13.09,-7.897c-2.67,0.492 -7.5,0.643 -8.54,-1.833Z" style="fill:#231f20;fill-rule:nonzero;"/><path d="M217.42,157.816c-4.01,-2.664 -7.6,-5.757 -10.81,-9.071c-3.29,-3.421 -6.17,-7.093 -8.88,-10.848c-1.46,1.197 -2.95,2.361 -4.56,3.391c-1.57,1.033 -3.03,2.186 -4.67,3.107l-4.88,2.787c-0.26,0.13 -0.53,0.241 -0.8,0.366c1.44,14.328 11.72,21.079 11.72,21.079l-11.31,19.472l-19.84,-2.655l-6.18,17.161l32.88,-0.025l0.04,-0.123l1.23,0c0,0 18.53,-33.19 30.35,-34.252c-5.34,-2.042 -6.05,-5.885 -4.29,-10.389Z" style="fill:#231f20;fill-rule:nonzero;"/><path d="M271.91,110.387c-16.29,15.233 -38.74,-2.88 -51.421,-16.004c2.851,-2.561 6.21,-5.965 9.611,-10.434c2.139,-2.817 4.24,-6.093 6.079,-9.88c1.801,-3.798 3.35,-8.189 3.741,-13.204c0.42,-4.965 -0.681,-10.616 -3.52,-15.151c-1.36,-2.301 -3.09,-4.271 -4.94,-5.986c-1.57,-1.442 -3.48,-2.984 -4.39,-4.07c-2.371,-2.458 -4.17,-5.556 -4.891,-8.704c-0.739,-3.165 -0.46,-6.51 0.781,-9.497c2.44,-6.087 8.25,-10.19 13.569,-11.263c2.541,-0.558 4.911,-0.489 7.031,-0.142c2.52,2.126 3.1,5.552 -10.72,9.672c3.589,4.443 13.52,8.671 38.52,8.671c-4.25,-4.727 -9.351,-11.68 -14.45,-16.657l0.099,-0.112c0,0 -0.429,-0.369 -1.239,-1.062c-0.341,-0.305 -0.801,-0.669 -1.31,-1.047c-2.12,-1.772 -4.23,-3.083 -6.25,-3.596c-3.31,-1.364 -7.62,-2.372 -12.681,-1.716c-7.119,0.864 -15.359,5.436 -19.709,13.926c-2.18,4.172 -3.141,9.329 -2.4,14.373c0.73,5.084 2.97,9.754 6.14,13.688c1.74,2.235 3.11,3.414 4.51,4.964c1.129,1.26 2.09,2.574 2.709,3.946c1.351,2.715 1.621,5.556 1.131,8.46c-1.01,5.862 -4.89,11.438 -8.61,15.57c-3.791,4.187 -7.581,7.172 -10.25,9.03c-0.121,0.082 -0.19,0.124 -0.3,0.199c-19.93,12.193 -35.79,9.318 -50.98,-6.128c-0.94,6.816 -2.66,13.573 -5.47,20.092c-0.18,0.388 -0.42,0.717 -0.61,1.095c-3.21,6.466 -8.06,11.586 -13.15,15.951c-0.43,0.368 -0.85,0.771 -1.29,1.129c-2.24,1.798 -4.54,3.436 -6.86,5.001c-1.28,0.864 -2.56,1.702 -3.85,2.503c-2.61,1.614 -5.23,3.137 -7.84,4.544c-0.01,0 -0.01,0.001 -0.01,0.002c-0.99,0.529 -1.96,0.967 -2.94,1.47c-5.05,2.577 -10.05,4.898 -14.88,6.913c-6.22,2.592 -12.2,4.791 -17.71,6.691c-0.53,0.182 -1.01,0.328 -1.53,0.503c-7.51,2.525 -14.17,4.503 -19.58,5.984c-0.39,0.109 -0.71,0.19 -1.09,0.293c-0.03,0.009 -0.06,0.017 -0.1,0.025l-4.83,37.463l-18.28,-2.448l-6.18,17.161l32.88,-0.025l0.04,-0.123l1.9,0c0,0 17.69,-21.818 22.92,-24.544c5.23,-2.725 9.37,-2.586 15,-4.378c-4.05,-1.08 -7.73,-3.337 -2.05,-10.454l-4.31,4.739l4.31,-4.74l0,0.001l3.39,-3.715l0,0.002l6.37,-6.995l0.11,0.154l7.06,-7.822l0.31,-0.349l0.13,-0.142l0.64,0.212c1.61,0.471 3.22,0.93 4.83,1.372c5.22,1.433 10.46,2.662 15.73,3.323c1.06,0.114 2.11,0.177 3.16,0.254c2.39,0.181 4.79,0.293 7.16,0.194c0.55,-0.042 1.09,-0.064 1.63,-0.092c1.16,-0.055 2.32,-0.116 3.47,-0.332c1.68,-0.256 3.37,-0.416 5,-0.879c1.64,-0.404 3.3,-0.72 4.88,-1.337c1.59,-0.568 3.21,-1.003 4.72,-1.771c1.52,-0.741 3.11,-1.274 4.55,-2.168l4.37,-2.52l3.39,-2.352l0.77,-0.539c1.39,-0.945 2.64,-2.135 3.96,-3.183c2.68,-2.045 4.97,-4.651 7.45,-6.946l3.85,-3.566l3.42,4.297l0.01,0.006c5.97,8.018 12.97,15.435 20.98,20.096c1.3,0.755 2.61,1.456 3.96,2.056c4.8,2.145 9.85,3.021 14.639,2.465c2.391,-0.305 4.73,-0.921 6.901,-1.905c1.099,-0.473 2.139,-1.05 3.13,-1.683c0.489,-0.3 0.98,-0.669 1.4,-0.978l0.58,-0.456l0.33,-0.288c1.26,-1.539 1.92,-2.628 1.92,-2.628l15.84,23.62c-1.86,2.864 -4.64,5.477 -4.64,5.477l-15.97,10.503l7.83,18.152l5.54,-5.554l26.29,-24.091c0,0 -21.76,-46.209 -19.44,-62.586Z" style="fill:#231f20;fill-rule:nonzero;"/><path d="M70.82,29.442l-6.92,8.9c-2.69,0 -3.5,-1.649 -3.5,-4.539l10.42,-4.361Zm-31.46,7.917c-3.93,1.63 -5.29,2.421 -4.57,8.246c0.01,0.006 0.01,0.007 0.01,0.013c0.64,3.195 1.23,6.326 1.23,6.326c0,0 0.84,-0.793 2.18,-1.833l2.17,5.521l0.73,-0.188l1.92,-8.459c5.66,-2.984 13.21,-4.331 16.49,6.835c2.21,7.527 -7.92,9.75 -14.61,10.407l-3.36,-5.237l-0.78,0.037l0.57,5.439c-1.19,0.043 -1.95,0.034 -1.95,0.034l1,9.516l8.51,-1.002l6.62,12.563c1.17,-1.06 2.39,-2.066 3.66,-2.951c3.73,-2.595 7.74,-4.334 11.37,-6.124c3.65,-1.815 7.25,-3.607 10.54,-5.546c3.28,-1.948 6.26,-4.034 8.61,-6.426c1.85,-1.883 3.22,-3.969 4.3,-6.115c-0.23,-0.273 -0.49,-0.59 -0.84,-1.005c-0.34,-0.576 -1.14,-0.982 -1.82,-1.56c-0.74,-0.515 -1.49,-1.253 -2.37,-1.604c-0.89,-0.451 -1.78,-0.903 -2.61,-1.325c-0.85,-0.468 -1.82,-0.54 -2.56,-0.789c-1.53,-0.396 -2.55,-0.66 -2.55,-0.66c0,0 1.05,-0.048 2.63,-0.117c0.79,0.017 1.7,-0.192 2.7,-0.003c1.03,0.172 2.12,0.353 3.22,0.537c1.17,0.123 2.15,0.622 3.16,0.956c0.99,0.414 1.98,0.603 2.73,1.187c0.04,0.031 0.08,0.053 0.12,0.082c0.77,-2.289 1.32,-4.461 1.7,-6.462c-0.28,-0.21 -0.71,-0.536 -1.37,-1.041c-0.46,-0.487 -1.32,-0.706 -2.12,-1.117c-0.83,-0.342 -1.73,-0.894 -2.66,-1.042c-0.97,-0.244 -1.93,-0.487 -2.84,-0.716c-0.93,-0.269 -1.89,-0.125 -2.67,-0.203c-1.58,-0.047 -2.63,-0.079 -2.63,-0.079c0,0 1.01,-0.28 2.53,-0.696c0.78,-0.158 1.62,-0.564 2.64,-0.597c1.04,-0.061 2.14,-0.128 3.25,-0.193c1.17,-0.138 2.24,0.133 3.3,0.235c1.06,0.186 2.06,0.151 2.92,0.554c0.16,0.061 0.28,0.107 0.43,0.164c0.03,-0.163 0.06,-0.365 0.08,-0.521c0.46,-3.599 0.67,-5.673 0.67,-5.673l2.44,0.183c0,0 -0.11,2.101 -0.41,5.793c-0.38,3.67 -0.75,9.024 -2.98,15.266c-1.07,3.122 -2.96,6.37 -5.53,9.229c-2.56,2.873 -5.75,5.311 -9.12,7.531c-3.38,2.213 -6.96,4.205 -10.59,6.235c-3.29,1.803 -6.48,3.505 -9.3,5.538c-0.33,0.239 -0.72,0.433 -1.03,0.683c-2.37,1.842 -4.42,3.959 -6.01,6.302c-0.47,0.69 -0.91,1.394 -1.3,2.123c-1.7,3.197 -2.53,6.724 -2.77,10.269c-0.42,7.131 1.19,14.107 2.7,19.992c1.57,5.907 3.2,10.836 4.32,14.295c0.08,0.248 0.14,0.429 0.22,0.659c0.45,-0.111 0.96,-0.246 1.43,-0.366c0.34,-0.088 0.72,-0.189 1.08,-0.281c5.19,-1.336 11.27,-3.012 18.13,-5.182c0,-0.001 0.01,-0.005 0.01,-0.006c4.79,-1.526 9.96,-3.296 15.29,-5.318c4.16,-1.577 8.41,-3.355 12.71,-5.316c1.72,-0.782 3.44,-1.576 5.16,-2.427c0.47,-0.232 0.94,-0.423 1.41,-0.661c1.03,-0.522 2.04,-1.147 3.06,-1.699c2.22,-1.189 4.43,-2.396 6.59,-3.737c0.17,-0.105 0.33,-0.232 0.5,-0.337c2.52,-1.582 5.03,-3.218 7.41,-5.04c5.4,-4.259 10.49,-9.257 13.31,-15.19c2.88,-6.269 4.76,-13.238 5.67,-20.091c0.15,-1.248 0.22,-2.491 0.3,-3.737c0.31,-5.107 -0.02,-10.157 -0.97,-14.995c-5.69,-21.307 -19.85,-38.232 -41.34,-53.584l-58.09,21.537c0,0 1.83,1.131 1.98,2.709c-5.99,1.453 -15.32,6.268 -18.85,10.248c2.14,-0.375 4.53,-0.223 4.89,0.007Z" style="fill:#231f20;fill-rule:nonzero;"/></svg>