<?xml version="1.0" encoding="UTF-8" standalone="no"?><!DOCTYPE svg PUBLIC "-//W3C//DTD SVG 1.1//EN" "http://www.w3.org/Graphics/SVG/1.1/DTD/svg11.dtd"><svg width="100%" height="100%" viewBox="0 0 375 375" version="1.1" xmlns="http://www.w3.org/2000/svg" xmlns:xlink="http://www.w3.org/1999/xlink" xml:space="preserve" xmlns:serif="http://www.serif.com/" style="fill-rule:evenodd;clip-rule:evenodd;stroke-linejoin:round;stroke-miterlimit:1.41421;"><g><path d="M123.716,147.747c0.893,0 1.228,-0.558 0.837,-1.283l-10.097,-22.534l9.484,-19.466c0.39,-0.781 0.055,-1.339 -0.781,-1.339l-5.858,0c-0.613,0 -1.004,0.279 -1.283,0.837l-8.591,17.57l0,-17.291c0,-0.725 -0.39,-1.116 -1.114,-1.116l-5.351,0c-0.724,0 -1.115,0.391 -1.115,1.116l0,42.39c0,0.725 0.391,1.116 1.115,1.116l5.351,0c0.724,0 1.114,-0.391 1.114,-1.116l0,-12.327l2.064,-3.96l7.029,16.566c0.223,0.558 0.614,0.837 1.283,0.837l5.913,0Z" style="fill:#0b2c3b;fill-rule:nonzero;"/><path d="M128.34,147.747c-0.613,0 -0.892,-0.335 -0.892,-0.893l0,-37.257c0,-0.558 0.279,-0.893 0.892,-0.893l5.796,0c0.558,0 0.892,0.335 0.892,0.893l0,37.257c0,0.558 -0.334,0.893 -0.892,0.893l-5.796,0Z" style="fill:#0b2c3b;fill-rule:nonzero;"/><path d="M156.096,108.704c-0.613,0 -0.891,0.335 -0.891,0.893l0,21.138l-10.494,-21.306c-0.223,-0.502 -0.502,-0.725 -1.003,-0.725l-4.403,0c-0.557,0 -0.892,0.335 -0.892,0.893l0,37.257c0,0.558 0.335,0.893 0.892,0.893l5.239,0c0.613,0 0.891,-0.335 0.891,-0.893l0,-21.139l10.494,21.306c0.223,0.502 0.502,0.726 1.003,0.726l4.403,0c0.557,0 0.892,-0.335 0.892,-0.893l0,-37.257c0,-0.558 -0.335,-0.893 -0.892,-0.893l-5.239,0Z" style="fill:#0b2c3b;fill-rule:nonzero;"/><path d="M165.612,130.231c0,0.725 0.39,1.115 1.115,1.115l8.809,0c0.724,0 1.115,-0.39 1.115,-1.115l0,-5.127c0,-0.725 -0.391,-1.115 -1.115,-1.115l-8.809,0c-0.725,0 -1.115,0.39 -1.115,1.115l0,5.127Z" style="fill:#0b2c3b;fill-rule:nonzero;"/><path d="M202.399,111.152c0,-5.24 -2.843,-8.027 -8.083,-8.027l-13.388,0c-0.558,0 -0.892,0.279 -0.892,0.892l0,42.838c0,0.557 0.334,0.892 0.892,0.892l13.388,0c5.24,0 8.083,-2.787 8.083,-8.027l0,-10.271c0,-2.062 -1.505,-3.623 -3.511,-3.957l0,-0.112c2.006,-0.334 3.511,-1.895 3.511,-3.957l0,-10.271Zm-7.413,8.429c0,1.395 -0.781,2.177 -2.233,2.177l-5.081,0l0,-11.276l5.081,0c1.508,0 2.233,0.782 2.233,2.233l0,6.866Zm0,18.576c0,1.507 -0.781,2.233 -2.233,2.233l-5.081,0l0,-11.276l5.081,0c1.508,0 2.233,0.782 2.233,2.233l0,6.81Z" style="fill:#0b2c3b;fill-rule:nonzero;"/><path d="M231.985,147.747c0.669,0 0.948,-0.335 0.781,-0.949l-9.263,-37.313c-0.112,-0.558 -0.447,-0.781 -0.949,-0.781l-7.756,0c-0.502,0 -0.837,0.223 -0.949,0.781l-9.262,37.313c-0.168,0.614 0.111,0.949 0.725,0.949l5.468,0c0.503,0 0.782,-0.279 0.893,-0.781l1.73,-7.029l10.49,0l1.786,7.029c0.112,0.502 0.391,0.781 0.893,0.781l5.413,0Zm-9.821,-14.274l-7.031,0l3.515,-15.174l3.516,15.174Z" style="fill:#0b2c3b;fill-rule:nonzero;"/><path d="M242.567,140.384l11.042,0c0.613,0 0.892,0.335 0.892,0.893l0,5.577c0,0.614 -0.279,0.893 -0.892,0.893l-17.734,0c-0.557,0 -0.892,-0.279 -0.892,-0.893l0,-37.257c0,-0.558 0.335,-0.893 0.892,-0.893l5.8,0c0.613,0 0.892,0.335 0.892,0.893l0,30.787Z" style="fill:#0b2c3b;fill-rule:nonzero;"/><path d="M265.47,140.384l11.042,0c0.613,0 0.892,0.335 0.892,0.893l0,5.577c0,0.614 -0.279,0.893 -0.892,0.893l-17.733,0c-0.558,0 -0.893,-0.279 -0.893,-0.893l0,-37.257c0,-0.558 0.335,-0.893 0.893,-0.893l5.799,0c0.614,0 0.892,0.335 0.892,0.893l0,30.787Z" style="fill:#0b2c3b;fill-rule:nonzero;"/></g><g><path d="M111.691,72.174c0,-0.265 -0.16,-0.424 -0.425,-0.424l-9.773,0c-0.292,0 -0.425,0.159 -0.425,0.424l0,20.399c0,0.266 0.133,0.425 0.425,0.425l2.76,0c0.265,0 0.425,-0.159 0.425,-0.425l0,-8.474l4.994,0c0.266,0 0.425,-0.133 0.425,-0.425l0,-2.654c0,-0.265 -0.159,-0.424 -0.425,-0.424l-4.994,0l0,-5.343l6.588,0c0.265,0 0.425,-0.159 0.425,-0.425l0,-2.654Z" style="fill:#ed174c;fill-rule:nonzero;"/><path d="M114.475,92.998c-0.292,0 -0.424,-0.159 -0.424,-0.425l0,-17.742c0,-0.265 0.132,-0.425 0.424,-0.425l2.761,0c0.265,0 0.424,0.16 0.424,0.425l0,17.742c0,0.266 -0.159,0.425 -0.424,0.425l-2.761,0Z" style="fill:#ed174c;fill-rule:nonzero;"/><path d="M128.441,74.406c-0.292,0 -0.425,0.16 -0.425,0.425l0,10.066l-4.997,-10.145c-0.106,-0.24 -0.239,-0.346 -0.478,-0.346l-2.096,0c-0.266,0 -0.425,0.16 -0.425,0.425l0,17.742c0,0.266 0.159,0.425 0.425,0.425l2.494,0c0.292,0 0.425,-0.159 0.425,-0.425l0,-10.066l4.997,10.146c0.106,0.239 0.239,0.345 0.478,0.345l2.096,0c0.266,0 0.425,-0.159 0.425,-0.425l0,-17.742c0,-0.265 -0.159,-0.425 -0.425,-0.425l-2.494,0Z" style="fill:#ed174c;fill-rule:nonzero;"/><path d="M146.328,92.998c0.319,0 0.451,-0.159 0.372,-0.451l-4.411,-17.769c-0.053,-0.266 -0.213,-0.372 -0.452,-0.372l-3.694,0c-0.239,0 -0.398,0.106 -0.451,0.372l-4.411,17.769c-0.08,0.292 0.053,0.451 0.345,0.451l2.604,0c0.239,0 0.372,-0.132 0.425,-0.372l0.824,-3.347l4.996,0l0.85,3.347c0.053,0.24 0.186,0.372 0.425,0.372l2.578,0Zm-4.677,-6.797l-3.348,0l1.674,-7.226l1.674,7.226Z" style="fill:#ed174c;fill-rule:nonzero;"/><path d="M152.162,89.492l5.258,0c0.293,0 0.425,0.16 0.425,0.425l0,2.656c0,0.293 -0.132,0.425 -0.425,0.425l-8.444,0c-0.266,0 -0.425,-0.132 -0.425,-0.425l0,-17.742c0,-0.265 0.159,-0.425 0.425,-0.425l2.762,0c0.292,0 0.424,0.16 0.424,0.425l0,14.661Z" style="fill:#ed174c;fill-rule:nonzero;"/><path d="M170.836,74.831c0,-0.266 -0.107,-0.425 -0.425,-0.425l-9.773,0c-0.239,0 -0.399,0.159 -0.399,0.425l0,17.743c0,0.265 0.16,0.424 0.399,0.424l9.773,0c0.318,0 0.425,-0.159 0.425,-0.424l0,-2.654c0,-0.292 -0.107,-0.425 -0.425,-0.425l-6.562,0l0,-3.935l4.994,0c0.266,0 0.425,-0.159 0.425,-0.451l0,-2.627c0,-0.292 -0.159,-0.452 -0.425,-0.452l-4.994,0l0,-4.094l6.562,0c0.318,0 0.425,-0.186 0.425,-0.451l0,-2.654Z" style="fill:#ed174c;fill-rule:nonzero;"/><path d="M177.021,74.406c-2.469,0 -3.823,1.327 -3.823,3.822l0,4.597c0,0.505 0.239,0.824 0.717,0.984l6.376,2.072l0,2.684c0,0.717 -0.372,1.063 -1.063,1.063l-1.436,0c-0.665,0 -1.064,-0.346 -1.064,-1.063l0,-1.116c0,-0.292 -0.132,-0.425 -0.424,-0.425l-2.681,0c-0.265,0 -0.425,0.133 -0.425,0.425l0,1.727c0,2.495 1.354,3.822 3.823,3.822l2.978,0c2.495,0 3.822,-1.327 3.822,-3.822l0,-4.995c0,-0.505 -0.239,-0.824 -0.69,-0.984l-6.429,-2.072l0,-2.259c0,-0.691 0.399,-1.063 1.063,-1.063l1.463,0c0.718,0 1.063,0.372 1.063,1.063l0,1.116c0,0.266 0.16,0.425 0.425,0.425l2.68,0c0.292,0 0.425,-0.159 0.425,-0.425l0,-1.754c0,-2.495 -1.327,-3.822 -3.822,-3.822l-2.978,0Z" style="fill:#ed174c;fill-rule:nonzero;"/><path d="M196.394,71.75c-2.468,0 -3.822,1.327 -3.822,3.822l0,6.271c0,0.504 0.239,0.823 0.717,0.983l6.296,2.072l0,3.534c0,0.718 -0.372,1.063 -1.063,1.063l-1.277,0c-0.664,0 -1.063,-0.345 -1.063,-1.063l0,-2.046c0,-0.292 -0.133,-0.425 -0.425,-0.425l-2.76,0c-0.266,0 -0.425,0.133 -0.425,0.425l0,2.79c0,2.495 1.354,3.822 3.822,3.822l2.979,0c2.495,0 3.822,-1.327 3.822,-3.822l0,-6.138c0,-0.505 -0.239,-0.797 -0.69,-0.983l-6.323,-2.072l0,-3.667c0,-0.691 0.399,-1.063 1.063,-1.063l1.277,0c0.718,0 1.063,0.372 1.063,1.063l0,2.072c0,0.266 0.16,0.426 0.425,0.426l2.76,0c0.292,0 0.425,-0.16 0.425,-0.426l0,-2.816c0,-2.495 -1.327,-3.822 -3.822,-3.822l-2.979,0Z" style="fill:#ed174c;fill-rule:nonzero;"/><path d="M213.205,74.406c-0.292,0 -0.531,0.239 -0.531,0.531l0,13.495c0,0.718 -0.372,1.063 -1.064,1.063l-1.382,0c-0.692,0 -1.064,-0.345 -1.064,-1.063l0,-13.495c0,-0.292 -0.239,-0.531 -0.531,-0.531l-2.548,0c-0.291,0 -0.53,0.239 -0.53,0.531l0,14.239c0,2.495 1.327,3.822 3.822,3.822l2.978,0c2.495,0 3.822,-1.327 3.822,-3.822l0,-14.239c0,-0.292 -0.239,-0.531 -0.53,-0.531l-2.442,0Z" style="fill:#ed174c;fill-rule:nonzero;"/><path d="M218.962,92.998c-0.292,0 -0.425,-0.159 -0.425,-0.425l0,-17.742c0,-0.265 0.133,-0.425 0.425,-0.425l2.76,0c0.265,0 0.425,0.16 0.425,0.425l0,17.742c0,0.266 -0.16,0.425 -0.425,0.425l-2.76,0Z" style="fill:#ed174c;fill-rule:nonzero;"/><path d="M228.329,74.406c-2.469,0 -3.822,1.327 -3.822,3.822l0,4.597c0,0.505 0.238,0.824 0.716,0.984l6.376,2.072l0,2.684c0,0.717 -0.372,1.063 -1.063,1.063l-1.436,0c-0.665,0 -1.064,-0.346 -1.064,-1.063l0,-1.116c0,-0.292 -0.132,-0.425 -0.424,-0.425l-2.681,0c-0.265,0 -0.424,0.133 -0.424,0.425l0,1.727c0,2.495 1.353,3.822 3.822,3.822l2.978,0c2.495,0 3.822,-1.327 3.822,-3.822l0,-4.995c0,-0.505 -0.239,-0.824 -0.69,-0.984l-6.429,-2.072l0,-2.259c0,-0.691 0.399,-1.063 1.063,-1.063l1.463,0c0.718,0 1.063,0.372 1.063,1.063l0,1.116c0,0.266 0.16,0.425 0.425,0.425l2.681,0c0.291,0 0.424,-0.159 0.424,-0.425l0,-1.754c0,-2.495 -1.327,-3.822 -3.822,-3.822l-2.978,0Z" style="fill:#ed174c;fill-rule:nonzero;"/><path d="M241.43,74.406c-2.469,0 -3.822,1.327 -3.822,3.822l0,4.597c0,0.505 0.239,0.824 0.716,0.984l6.377,2.072l0,2.684c0,0.717 -0.373,1.063 -1.064,1.063l-1.436,0c-0.665,0 -1.063,-0.346 -1.063,-1.063l0,-1.116c0,-0.292 -0.133,-0.425 -0.425,-0.425l-2.681,0c-0.265,0 -0.424,0.133 -0.424,0.425l0,1.727c0,2.495 1.353,3.822 3.822,3.822l2.978,0c2.495,0 3.822,-1.327 3.822,-3.822l0,-4.995c0,-0.505 -0.238,-0.824 -0.69,-0.984l-6.429,-2.072l0,-2.259c0,-0.691 0.399,-1.063 1.064,-1.063l1.462,0c0.718,0 1.064,0.372 1.064,1.063l0,1.116c0,0.266 0.159,0.425 0.424,0.425l2.681,0c0.292,0 0.424,-0.159 0.424,-0.425l0,-1.754c0,-2.495 -1.327,-3.822 -3.822,-3.822l-2.978,0Z" style="fill:#ed174c;fill-rule:nonzero;"/><path d="M261.186,74.831c0,-0.266 -0.106,-0.425 -0.425,-0.425l-9.773,0c-0.239,0 -0.398,0.159 -0.398,0.425l0,17.743c0,0.265 0.159,0.424 0.398,0.424l9.773,0c0.319,0 0.425,-0.159 0.425,-0.424l0,-2.654c0,-0.292 -0.106,-0.425 -0.425,-0.425l-6.561,0l0,-3.935l4.994,0c0.266,0 0.425,-0.159 0.425,-0.451l0,-2.627c0,-0.292 -0.159,-0.452 -0.425,-0.452l-4.994,0l0,-4.094l6.561,0c0.319,0 0.425,-0.186 0.425,-0.451l0,-2.654Z" style="fill:#ed174c;fill-rule:nonzero;"/><path d="M267.372,74.406c-2.469,0 -3.823,1.327 -3.823,3.822l0,4.597c0,0.505 0.239,0.824 0.717,0.984l6.376,2.072l0,2.684c0,0.717 -0.372,1.063 -1.064,1.063l-1.435,0c-0.665,0 -1.064,-0.346 -1.064,-1.063l0,-1.116c0,-0.292 -0.133,-0.425 -0.425,-0.425l-2.68,0c-0.266,0 -0.425,0.133 -0.425,0.425l0,1.727c0,2.495 1.354,3.822 3.823,3.822l2.978,0c2.495,0 3.822,-1.327 3.822,-3.822l0,-4.995c0,-0.505 -0.239,-0.824 -0.69,-0.984l-6.43,-2.072l0,-2.259c0,-0.691 0.399,-1.063 1.064,-1.063l1.462,0c0.718,0 1.064,0.372 1.064,1.063l0,1.116c0,0.266 0.159,0.425 0.425,0.425l2.68,0c0.292,0 0.425,-0.159 0.425,-0.425l0,-1.754c0,-2.495 -1.327,-3.822 -3.822,-3.822l-2.978,0Z" style="fill:#ed174c;fill-rule:nonzero;"/></g><g><path d="M139.639,202.612c0.404,-0.212 0.573,-0.382 0.573,-0.786l0,-5.016c0,-1.995 -1.082,-3.057 -3.057,-3.057l-2.382,0c-1.996,0 -3.057,1.062 -3.057,3.057l0,2.253c0,0.213 0.106,0.34 0.34,0.34l2.207,0c0.213,0 0.34,-0.127 0.34,-0.34l0,-1.658c0,-0.552 0.277,-0.85 0.851,-0.85l1.021,0c0.531,0 0.85,0.298 0.85,0.85l0,3.146l-5.057,2.72c-0.403,0.213 -0.552,0.383 -0.552,0.786l0,6.267c0,0.276 0.149,0.425 0.425,0.425l7.647,0c0.276,0 0.424,-0.149 0.424,-0.425l0,-3.249c0,-0.276 -0.148,-0.425 -0.424,-0.425l-2.038,0c-0.276,0 -0.425,0.149 -0.425,0.425l0,0.872l-2.297,0c-0.276,0 -0.425,-0.149 -0.425,-0.425l0,-1.849c0,-0.234 0.085,-0.383 0.298,-0.51l4.738,-2.551Z" style="fill:#fff;fill-rule:nonzero;"/><path d="M142.14,207.692c0,1.995 1.061,3.057 3.057,3.057l2.382,0c1.996,0 3.057,-1.062 3.057,-3.057l0,-10.882c0,-1.995 -1.061,-3.057 -3.057,-3.057l-2.382,0c-1.996,0 -3.057,1.062 -3.057,3.057l0,10.882Zm3.674,0.318c-0.553,0 -0.851,-0.276 -0.851,-0.85l0,-9.818c0,-0.553 0.298,-0.85 0.851,-0.85l1.233,0c0.553,0 0.851,0.297 0.851,0.85l0,9.818c0,0.574 -0.298,0.85 -0.851,0.85l-1.233,0Z" style="fill:#fff;fill-rule:nonzero;"/></g><g><path d="M227.686,194.284c-0.276,0.022 -0.404,0.17 -0.404,0.447l0,2.039c0,0.276 0.17,0.425 0.447,0.382l1.317,-0.17l0,13.427c0,0.212 0.106,0.34 0.34,0.34l2.207,0c0.213,0 0.34,-0.128 0.34,-0.34l0,-16.316c0,-0.212 -0.127,-0.34 -0.34,-0.34l-3.907,0.531Z" style="fill:#fff;fill-rule:nonzero;"/><path d="M242.54,196.81c0,-1.995 -1.082,-3.057 -3.078,-3.057l-2.361,0c-1.996,0 -3.078,1.062 -3.078,3.057l0,3.912c0,0.786 0.573,1.38 1.337,1.508l0,0.042c-0.764,0.128 -1.337,0.722 -1.337,1.508l0,3.912c0,1.995 1.082,3.057 3.078,3.057l2.361,0c1.996,0 3.078,-1.062 3.078,-3.057l0,-3.912c0,-0.786 -0.573,-1.38 -1.337,-1.508l0,-0.042c0.764,-0.128 1.337,-0.722 1.337,-1.508l0,-3.912Zm-2.823,3.211c0,0.531 -0.298,0.829 -0.85,0.829l-1.17,0c-0.553,0 -0.851,-0.298 -0.851,-0.829l0,-2.615c0,-0.553 0.277,-0.851 0.851,-0.851l1.17,0c0.574,0 0.85,0.298 0.85,0.851l0,2.615Zm0,7.075c0,0.574 -0.298,0.851 -0.85,0.851l-1.17,0c-0.553,0 -0.851,-0.277 -0.851,-0.851l0,-2.594c0,-0.552 0.277,-0.85 0.851,-0.85l1.17,0c0.574,0 0.85,0.298 0.85,0.85l0,2.594Z" style="fill:#fff;fill-rule:nonzero;"/></g><g><path d="M138.078,177.242l6.321,0c0.292,0 0.425,0.16 0.425,0.425l0,2.656c0,0.293 -0.133,0.425 -0.425,0.425l-9.507,0c-0.266,0 -0.425,-0.132 -0.425,-0.425l0,-20.398c0,-0.266 0.159,-0.425 0.425,-0.425l2.761,0c0.293,0 0.425,0.159 0.425,0.425l0,17.317Z" style="fill:#fff;fill-rule:nonzero;"/><path d="M159.723,180.748c0.319,0 0.451,-0.159 0.372,-0.451l-4.411,-17.769c-0.053,-0.266 -0.213,-0.372 -0.452,-0.372l-3.694,0c-0.239,0 -0.398,0.106 -0.451,0.372l-4.411,17.769c-0.08,0.292 0.053,0.451 0.345,0.451l2.604,0c0.239,0 0.372,-0.132 0.425,-0.372l0.824,-3.347l4.996,0l0.85,3.347c0.053,0.24 0.186,0.372 0.425,0.372l2.578,0Zm-4.677,-6.797l-3.348,0l1.674,-7.226l1.674,7.226Z" style="fill:#fff;fill-rule:nonzero;"/><path d="M169.649,162.156c-0.292,0 -0.531,0.239 -0.531,0.531l0,13.495c0,0.718 -0.372,1.063 -1.063,1.063l-1.383,0c-0.691,0 -1.064,-0.345 -1.064,-1.063l0,-13.495c0,-0.292 -0.238,-0.531 -0.53,-0.531l-2.548,0c-0.292,0 -0.531,0.239 -0.531,0.531l0,14.239c0,2.495 1.327,3.822 3.822,3.822l2.978,0c2.496,0 3.823,-1.327 3.823,-3.822l0,-14.239c0,-0.292 -0.239,-0.531 -0.531,-0.531l-2.442,0Z" style="fill:#fff;fill-rule:nonzero;"/><path d="M178.838,162.156c-2.469,0 -3.822,1.327 -3.822,3.822l0,4.597c0,0.505 0.239,0.824 0.716,0.984l6.377,2.072l0,2.684c0,0.717 -0.373,1.063 -1.064,1.063l-1.436,0c-0.665,0 -1.063,-0.346 -1.063,-1.063l0,-1.116c0,-0.292 -0.133,-0.425 -0.425,-0.425l-2.681,0c-0.265,0 -0.424,0.133 -0.424,0.425l0,1.727c0,2.495 1.353,3.822 3.822,3.822l2.978,0c2.495,0 3.822,-1.327 3.822,-3.822l0,-4.995c0,-0.505 -0.238,-0.824 -0.69,-0.984l-6.429,-2.072l0,-2.259c0,-0.691 0.399,-1.063 1.064,-1.063l1.462,0c0.718,0 1.064,0.372 1.064,1.063l0,1.116c0,0.266 0.159,0.425 0.424,0.425l2.681,0c0.292,0 0.424,-0.159 0.424,-0.425l0,-1.754c0,-2.495 -1.327,-3.822 -3.822,-3.822l-2.978,0Z" style="fill:#fff;fill-rule:nonzero;"/><path d="M200.572,180.748c0.319,0 0.451,-0.159 0.372,-0.451l-4.411,-17.769c-0.053,-0.266 -0.213,-0.372 -0.452,-0.372l-3.694,0c-0.239,0 -0.398,0.106 -0.451,0.372l-4.411,17.769c-0.08,0.292 0.053,0.451 0.345,0.451l2.604,0c0.239,0 0.372,-0.132 0.425,-0.372l0.824,-3.347l4.996,0l0.85,3.347c0.053,0.24 0.186,0.372 0.425,0.372l2.578,0Zm-4.677,-6.797l-3.348,0l1.674,-7.226l1.674,7.226Z" style="fill:#fff;fill-rule:nonzero;"/><path d="M211.216,162.156c-0.292,0 -0.425,0.16 -0.425,0.425l0,10.066l-4.997,-10.145c-0.106,-0.24 -0.239,-0.346 -0.478,-0.346l-2.096,0c-0.266,0 -0.425,0.16 -0.425,0.425l0,17.742c0,0.266 0.159,0.425 0.425,0.425l2.494,0c0.292,0 0.425,-0.159 0.425,-0.425l0,-10.066l4.997,10.146c0.106,0.239 0.239,0.345 0.478,0.345l2.096,0c0.266,0 0.425,-0.159 0.425,-0.425l0,-17.742c0,-0.265 -0.159,-0.425 -0.425,-0.425l-2.494,0Z" style="fill:#fff;fill-rule:nonzero;"/><path d="M224.915,162.156c-0.292,0 -0.424,0.16 -0.424,0.425l0,10.066l-4.997,-10.145c-0.107,-0.24 -0.239,-0.346 -0.478,-0.346l-2.097,0c-0.265,0 -0.424,0.16 -0.424,0.425l0,17.742c0,0.266 0.159,0.425 0.424,0.425l2.495,0c0.292,0 0.425,-0.159 0.425,-0.425l0,-10.066l4.997,10.146c0.106,0.239 0.239,0.345 0.477,0.345l2.097,0c0.265,0 0.425,-0.159 0.425,-0.425l0,-17.742c0,-0.265 -0.16,-0.425 -0.425,-0.425l-2.495,0Z" style="fill:#fff;fill-rule:nonzero;"/><path d="M240.791,162.581c0,-0.266 -0.107,-0.425 -0.425,-0.425l-9.773,0c-0.239,0 -0.399,0.159 -0.399,0.425l0,17.743c0,0.265 0.16,0.424 0.399,0.424l9.773,0c0.318,0 0.425,-0.159 0.425,-0.424l0,-2.654c0,-0.292 -0.107,-0.425 -0.425,-0.425l-6.562,0l0,-3.935l4.994,0c0.266,0 0.425,-0.159 0.425,-0.451l0,-2.627c0,-0.292 -0.159,-0.452 -0.425,-0.452l-4.994,0l0,-4.094l6.562,0c0.318,0 0.425,-0.186 0.425,-0.451l0,-2.654Z" style="fill:#fff;fill-rule:nonzero;"/></g><g><path d="M160.798,244.25c-0.345,0 -0.531,0.185 -0.531,0.53l0,9.244c0,0.292 0.133,0.478 0.452,0.584l6.323,1.993l0,4.863c0,0.345 -0.187,0.531 -0.532,0.531l-2.899,0l0,-1.063c0,-0.345 -0.185,-0.531 -0.53,-0.531l-2.548,0c-0.345,0 -0.531,0.186 -0.531,0.531l0,0.851c0,2.415 1.3,3.715 3.716,3.715l3.191,0c2.415,0 3.715,-1.3 3.715,-3.715l0,-7.281c0,-0.292 -0.132,-0.478 -0.451,-0.585l-6.323,-1.992l0,-4.172l5.978,0c0.345,0 0.531,-0.186 0.531,-0.531l0,-2.442c0,-0.345 -0.186,-0.53 -0.531,-0.53l-9.03,0Z" style="fill-rule:nonzero;"/><path d="M190.48,246.906c-0.319,0 -0.505,0.16 -0.585,0.452l-2.95,11.846l-2.95,-11.846c-0.08,-0.292 -0.266,-0.452 -0.585,-0.452l-3.504,0c-0.345,0 -0.53,0.186 -0.53,0.531l0,17.53c0,0.345 0.185,0.531 0.53,0.531l2.442,0c0.345,0 0.531,-0.186 0.531,-0.531l0,-10.438l0.186,0l2.498,10.518c0.08,0.292 0.266,0.451 0.585,0.451l1.568,0c0.319,0 0.505,-0.159 0.584,-0.451l2.498,-10.518l0.186,0l0,10.438c0,0.345 0.186,0.531 0.531,0.531l2.468,0c0.345,0 0.531,-0.186 0.531,-0.531l0,-17.53c0,-0.345 -0.186,-0.531 -0.531,-0.531l-3.503,0Z" style="fill-rule:nonzero;"/><path d="M209.448,265.498c0.318,0 0.451,-0.159 0.372,-0.451l-4.411,-17.769c-0.054,-0.266 -0.213,-0.372 -0.452,-0.372l-3.694,0c-0.239,0 -0.398,0.106 -0.451,0.372l-4.411,17.769c-0.08,0.292 0.053,0.451 0.345,0.451l2.604,0c0.239,0 0.372,-0.132 0.425,-0.372l0.824,-3.347l4.996,0l0.85,3.347c0.053,0.24 0.186,0.372 0.425,0.372l2.578,0Zm-4.677,-6.797l-3.348,0l1.674,-7.226l1.674,7.226Z" style="fill-rule:nonzero;"/><path d="M212.095,265.498c-0.292,0 -0.424,-0.159 -0.424,-0.425l0,-17.742c0,-0.265 0.132,-0.425 0.424,-0.425l2.761,0c0.265,0 0.424,0.16 0.424,0.425l0,17.742c0,0.266 -0.159,0.425 -0.424,0.425l-2.761,0Z" style="fill-rule:nonzero;"/><path d="M130.762,266.875c-1.496,0 -2.316,0.804 -2.316,2.316l0,3.799c0,0.306 0.145,0.499 0.435,0.596l3.814,1.255l0,2.142c0,0.434 -0.225,0.643 -0.644,0.643l-0.773,0c-0.403,0 -0.645,-0.209 -0.645,-0.643l0,-1.24c0,-0.177 -0.08,-0.258 -0.257,-0.258l-1.672,0c-0.161,0 -0.258,0.081 -0.258,0.258l0,1.69c0,1.512 0.82,2.316 2.316,2.316l1.805,0c1.511,0 2.315,-0.804 2.315,-2.316l0,-3.719c0,-0.305 -0.144,-0.482 -0.418,-0.595l-3.831,-1.256l0,-2.221c0,-0.419 0.242,-0.644 0.645,-0.644l0.773,0c0.435,0 0.644,0.225 0.644,0.644l0,1.255c0,0.161 0.097,0.258 0.258,0.258l1.672,0c0.177,0 0.257,-0.097 0.257,-0.258l0,-1.706c0,-1.512 -0.804,-2.316 -2.315,-2.316l-1.805,0Z" style="fill-rule:nonzero;"/><path d="M143.919,279.749c0.193,0 0.274,-0.097 0.226,-0.274l-2.673,-10.765c-0.032,-0.161 -0.129,-0.225 -0.274,-0.225l-2.237,0c-0.145,0 -0.242,0.064 -0.274,0.225l-2.673,10.765c-0.048,0.177 0.033,0.274 0.21,0.274l1.577,0c0.145,0 0.226,-0.08 0.258,-0.225l0.499,-2.028l3.027,0l0.515,2.028c0.032,0.145 0.113,0.225 0.257,0.225l1.562,0Zm-2.833,-4.118l-2.029,0l1.014,-4.378l1.015,4.378Z" style="fill-rule:nonzero;"/><path d="M147.436,277.625l3.186,0c0.177,0 0.257,0.096 0.257,0.257l0,1.61c0,0.177 -0.08,0.257 -0.257,0.257l-5.117,0c-0.161,0 -0.257,-0.08 -0.257,-0.257l0,-10.75c0,-0.161 0.096,-0.257 0.257,-0.257l1.674,0c0.177,0 0.257,0.096 0.257,0.257l0,8.883Z" style="fill-rule:nonzero;"/><path d="M154.479,277.625l3.185,0c0.177,0 0.258,0.096 0.258,0.257l0,1.61c0,0.177 -0.081,0.257 -0.258,0.257l-5.116,0c-0.161,0 -0.257,-0.08 -0.257,-0.257l0,-10.75c0,-0.161 0.096,-0.257 0.257,-0.257l1.673,0c0.177,0 0.258,0.096 0.258,0.257l0,8.883Z" style="fill-rule:nonzero;"/><path d="M165.792,268.742c0,-0.161 -0.064,-0.257 -0.257,-0.257l-5.921,0c-0.145,0 -0.242,0.096 -0.242,0.257l0,10.75c0,0.161 0.097,0.257 0.242,0.257l5.921,0c0.193,0 0.257,-0.096 0.257,-0.257l0,-1.608c0,-0.177 -0.064,-0.258 -0.257,-0.258l-3.976,0l0,-2.384l3.026,0c0.161,0 0.258,-0.096 0.258,-0.273l0,-1.592c0,-0.177 -0.097,-0.273 -0.258,-0.273l-3.026,0l0,-2.481l3.976,0c0.193,0 0.257,-0.112 0.257,-0.273l0,-1.608Z" style="fill-rule:nonzero;"/><path d="M171.128,277.433c0,1.512 0.804,2.316 2.315,2.316l1.805,0c1.512,0 2.316,-0.804 2.316,-2.316l0,-8.242c0,-1.512 -0.804,-2.316 -2.316,-2.316l-1.805,0c-1.511,0 -2.315,0.804 -2.315,2.316l0,8.242Zm2.783,0.242c-0.419,0 -0.645,-0.21 -0.645,-0.644l0,-7.438c0,-0.418 0.226,-0.644 0.645,-0.644l0.934,0c0.419,0 0.644,0.226 0.644,0.644l0,7.438c0,0.434 -0.225,0.644 -0.644,0.644l-0.934,0Z" style="fill-rule:nonzero;"/><path d="M185.703,268.485c-0.194,0 -0.306,0.096 -0.355,0.273l-1.787,7.177l-1.787,-7.177c-0.048,-0.177 -0.161,-0.273 -0.354,-0.273l-2.123,0c-0.209,0 -0.322,0.112 -0.322,0.321l0,10.621c0,0.209 0.113,0.322 0.322,0.322l1.479,0c0.209,0 0.322,-0.113 0.322,-0.322l0,-6.324l0.112,0l1.514,6.372c0.048,0.177 0.161,0.274 0.354,0.274l0.95,0c0.193,0 0.306,-0.097 0.354,-0.274l1.514,-6.372l0.113,0l0,6.324c0,0.209 0.112,0.322 0.321,0.322l1.496,0c0.209,0 0.321,-0.113 0.321,-0.322l0,-10.621c0,-0.209 -0.112,-0.321 -0.321,-0.321l-2.123,0Z" style="fill-rule:nonzero;"/><path d="M194.661,268.485c-0.177,0 -0.258,0.096 -0.258,0.257l0,6.099l-3.027,-6.147c-0.065,-0.145 -0.145,-0.209 -0.29,-0.209l-1.27,0c-0.161,0 -0.257,0.096 -0.257,0.257l0,10.75c0,0.16 0.096,0.257 0.257,0.257l1.511,0c0.177,0 0.258,-0.097 0.258,-0.257l0,-6.099l3.027,6.147c0.065,0.145 0.145,0.209 0.29,0.209l1.27,0c0.161,0 0.257,-0.097 0.257,-0.257l0,-10.75c0,-0.161 -0.096,-0.257 -0.257,-0.257l-1.511,0Z" style="fill-rule:nonzero;"/><path d="M198.098,279.749c-0.177,0 -0.257,-0.097 -0.257,-0.257l0,-10.75c0,-0.161 0.08,-0.257 0.257,-0.257l1.672,0c0.161,0 0.258,0.096 0.258,0.257l0,10.75c0,0.16 -0.097,0.257 -0.258,0.257l-1.672,0Z" style="fill-rule:nonzero;"/><path d="M203.855,268.485c-1.496,0 -2.316,0.803 -2.316,2.315l0,2.785c0,0.306 0.145,0.5 0.434,0.596l3.864,1.256l0,1.626c0,0.435 -0.226,0.644 -0.645,0.644l-0.87,0c-0.403,0 -0.644,-0.209 -0.644,-0.644l0,-0.676c0,-0.177 -0.081,-0.258 -0.257,-0.258l-1.625,0c-0.16,0 -0.257,0.081 -0.257,0.258l0,1.046c0,1.512 0.82,2.316 2.316,2.316l1.804,0c1.512,0 2.316,-0.804 2.316,-2.316l0,-3.026c0,-0.306 -0.145,-0.5 -0.418,-0.596l-3.895,-1.256l0,-1.368c0,-0.419 0.241,-0.644 0.644,-0.644l0.886,0c0.435,0 0.645,0.225 0.645,0.644l0,0.676c0,0.161 0.096,0.257 0.257,0.257l1.624,0c0.177,0 0.257,-0.096 0.257,-0.257l0,-1.063c0,-1.512 -0.804,-2.315 -2.316,-2.315l-1.804,0Z" style="fill-rule:nonzero;"/><path d="M209.387,279.498c0,0.161 0.096,0.258 0.257,0.258l1.576,0.016c0.177,0 0.257,-0.097 0.257,-0.258l0,-3.219l2.03,-0.016c1.512,-0.016 2.316,-0.822 2.316,-2.321l0,-3.158c0,-1.512 -0.804,-2.315 -2.316,-2.315l-3.863,0c-0.161,0 -0.257,0.096 -0.257,0.257l0,10.756Zm2.09,-5.282l0,-3.641l1.611,-0.016c0.435,0 0.644,0.225 0.644,0.644l0,2.352c0,0.403 -0.209,0.645 -0.644,0.645l-1.611,0.016Z" style="fill-rule:nonzero;"/><path d="M217.273,277.433c0,1.512 0.804,2.316 2.316,2.316l1.804,0c1.512,0 2.316,-0.804 2.316,-2.316l0,-6.633c0,-1.512 -0.804,-2.315 -2.316,-2.315l-1.804,0c-1.512,0 -2.316,0.803 -2.316,2.315l0,6.633Zm2.735,0.242c-0.419,0 -0.644,-0.21 -0.644,-0.644l0,-5.828c0,-0.419 0.225,-0.644 0.644,-0.644l1.031,0c0.419,0 0.644,0.225 0.644,0.644l0,5.828c0,0.434 -0.225,0.644 -0.644,0.644l-1.031,0Z" style="fill-rule:nonzero;"/><path d="M231.557,270.8c0,-1.512 -0.804,-2.315 -2.316,-2.315l-3.863,0c-0.161,0 -0.257,0.096 -0.257,0.257l0,10.749c0,0.161 0.096,0.258 0.257,0.258l1.576,0c0.161,0 0.257,-0.097 0.257,-0.258l0,-3.138l1.434,0l0.773,3.171c0.032,0.145 0.113,0.225 0.273,0.225l1.576,0c0.177,0 0.274,-0.097 0.225,-0.29l-0.836,-3.46c0.595,-0.37 0.901,-1.029 0.901,-1.962l0,-3.237Zm-4.346,3.479l0,-3.72l1.611,0c0.419,0 0.644,0.225 0.644,0.644l0,2.432c0,0.418 -0.225,0.644 -0.644,0.644l-1.611,0Z" style="fill-rule:nonzero;"/><path d="M238.825,268.485c0.177,0 0.257,0.096 0.257,0.257l0,1.609c0,0.161 -0.08,0.258 -0.257,0.258l-1.867,0l0,8.883c0,0.177 -0.08,0.257 -0.257,0.257l-1.673,0c-0.161,0 -0.258,-0.08 -0.258,-0.257l0,-8.883l-1.866,0c-0.161,0 -0.258,-0.097 -0.258,-0.258l0,-1.609c0,-0.161 0.097,-0.257 0.258,-0.257l5.921,0Z" style="fill-rule:nonzero;"/><path d="M242.588,268.485c-1.496,0 -2.316,0.803 -2.316,2.315l0,2.785c0,0.306 0.145,0.5 0.434,0.596l3.863,1.256l0,1.626c0,0.435 -0.225,0.644 -0.644,0.644l-0.87,0c-0.403,0 -0.644,-0.209 -0.644,-0.644l0,-0.676c0,-0.177 -0.081,-0.258 -0.258,-0.258l-1.624,0c-0.161,0 -0.257,0.081 -0.257,0.258l0,1.046c0,1.512 0.82,2.316 2.316,2.316l1.804,0c1.512,0 2.316,-0.804 2.316,-2.316l0,-3.026c0,-0.306 -0.145,-0.5 -0.418,-0.596l-3.896,-1.256l0,-1.368c0,-0.419 0.242,-0.644 0.645,-0.644l0.886,0c0.435,0 0.644,0.225 0.644,0.644l0,0.676c0,0.161 0.097,0.257 0.258,0.257l1.624,0c0.177,0 0.257,-0.096 0.257,-0.257l0,-1.063c0,-1.512 -0.804,-2.315 -2.316,-2.315l-1.804,0Z" style="fill-rule:nonzero;"/><path d="M110.713,299.926c0,2.495 1.327,3.822 3.822,3.822l3.509,0c2.469,0 3.823,-1.327 3.823,-3.822l0,-7.385c0,-0.292 -0.16,-0.425 -0.425,-0.425l-4.461,0c-0.293,0 -0.425,0.133 -0.425,0.425l0,2.654c0,0.265 0.132,0.424 0.425,0.424l1.382,0l0,3.563c0,0.717 -0.372,1.063 -1.063,1.063l-1.914,0c-0.692,0 -1.064,-0.346 -1.064,-1.063l0,-12.116c0,-0.691 0.346,-1.063 1.064,-1.063l1.914,0c0.691,0 1.063,0.372 1.063,1.063l0,2.02c0,0.266 0.133,0.425 0.425,0.425l2.654,0c0.265,0 0.425,-0.159 0.425,-0.425l0,-2.764c0,-2.495 -1.354,-3.822 -3.823,-3.822l-3.509,0c-2.495,0 -3.822,1.327 -3.822,3.822l0,13.604Z" style="fill-rule:nonzero;"/><path d="M134.849,288.978c0,-2.495 -1.327,-3.822 -3.822,-3.822l-6.376,0c-0.265,0 -0.424,0.159 -0.424,0.425l0,17.742c0,0.266 0.159,0.425 0.424,0.425l2.601,0c0.265,0 0.425,-0.159 0.425,-0.425l0,-5.18l2.366,0l1.276,5.233c0.054,0.24 0.186,0.372 0.452,0.372l2.6,0c0.292,0 0.452,-0.159 0.372,-0.478l-1.38,-5.711c0.982,-0.61 1.486,-1.698 1.486,-3.238l0,-5.343Zm-7.172,5.742l0,-6.14l2.659,0c0.691,0 1.063,0.372 1.063,1.063l0,4.013c0,0.691 -0.372,1.064 -1.063,1.064l-2.659,0Z" style="fill-rule:nonzero;"/><path d="M149.767,303.748c0.319,0 0.452,-0.159 0.372,-0.451l-4.411,-17.769c-0.053,-0.266 -0.213,-0.372 -0.452,-0.372l-3.693,0c-0.24,0 -0.399,0.106 -0.452,0.372l-4.411,17.769c-0.08,0.292 0.053,0.451 0.345,0.451l2.604,0c0.24,0 0.372,-0.132 0.426,-0.372l0.823,-3.347l4.996,0l0.85,3.347c0.053,0.24 0.186,0.372 0.425,0.372l2.578,0Zm-4.677,-6.797l-3.348,0l1.674,-7.226l1.674,7.226Z" style="fill-rule:nonzero;"/><path d="M160.411,285.156c-0.292,0 -0.425,0.16 -0.425,0.425l0,10.066l-4.997,-10.145c-0.106,-0.24 -0.239,-0.346 -0.478,-0.346l-2.096,0c-0.266,0 -0.425,0.16 -0.425,0.425l0,17.742c0,0.266 0.159,0.425 0.425,0.425l2.494,0c0.292,0 0.425,-0.159 0.425,-0.425l0,-10.066l4.997,10.146c0.106,0.239 0.239,0.345 0.478,0.345l2.096,0c0.266,0 0.425,-0.159 0.425,-0.425l0,-17.742c0,-0.265 -0.159,-0.425 -0.425,-0.425l-2.494,0Z" style="fill-rule:nonzero;"/><path d="M165.69,303.324c0,0.292 0.133,0.424 0.424,0.424l6.376,0c2.496,0 3.823,-1.327 3.823,-3.822l0,-10.921c0,-2.495 -1.327,-3.849 -3.823,-3.849l-6.376,0c-0.291,0 -0.424,0.159 -0.424,0.425l0,17.743Zm3.609,-3.079l0,-11.586l2.447,0c0.691,0 1.063,0.372 1.063,1.09l0,9.433c0,0.718 -0.372,1.063 -1.063,1.063l-2.447,0Z" style="fill-rule:nonzero;"/><path d="M178.672,295.407c0,0.345 0.186,0.531 0.531,0.531l4.195,0c0.345,0 0.531,-0.186 0.531,-0.531l0,-2.441c0,-0.345 -0.186,-0.531 -0.531,-0.531l-4.195,0c-0.345,0 -0.531,0.186 -0.531,0.531l0,2.441Z" style="fill-rule:nonzero;"/><path d="M195.644,282.5c-0.319,0 -0.505,0.159 -0.585,0.478l-2.814,14.236l-2.788,-14.236c-0.08,-0.319 -0.266,-0.478 -0.584,-0.478l-2.523,0c-0.398,0 -0.557,0.212 -0.477,0.584l4.46,20.186c0.08,0.319 0.266,0.478 0.584,0.478l2.656,0c0.318,0 0.504,-0.159 0.584,-0.478l4.487,-20.186c0.079,-0.372 -0.08,-0.584 -0.478,-0.584l-2.522,0Z" style="fill-rule:nonzero;"/><path d="M211.144,285.581c0,-0.266 -0.106,-0.425 -0.425,-0.425l-9.773,0c-0.239,0 -0.398,0.159 -0.398,0.425l0,17.743c0,0.265 0.159,0.424 0.398,0.424l9.773,0c0.319,0 0.425,-0.159 0.425,-0.424l0,-2.654c0,-0.292 -0.106,-0.425 -0.425,-0.425l-6.562,0l0,-3.935l4.995,0c0.265,0 0.425,-0.159 0.425,-0.451l0,-2.627c0,-0.292 -0.16,-0.452 -0.425,-0.452l-4.995,0l0,-4.094l6.562,0c0.319,0 0.425,-0.186 0.425,-0.451l0,-2.654Z" style="fill-rule:nonzero;"/><path d="M221.924,285.156c-0.291,0 -0.424,0.16 -0.424,0.425l0,10.066l-4.997,-10.145c-0.107,-0.24 -0.239,-0.346 -0.478,-0.346l-2.097,0c-0.265,0 -0.424,0.16 -0.424,0.425l0,17.742c0,0.266 0.159,0.425 0.424,0.425l2.495,0c0.292,0 0.425,-0.159 0.425,-0.425l0,-10.066l4.997,10.146c0.106,0.239 0.239,0.345 0.478,0.345l2.096,0c0.265,0 0.425,-0.159 0.425,-0.425l0,-17.742c0,-0.265 -0.16,-0.425 -0.425,-0.425l-2.495,0Z" style="fill-rule:nonzero;"/><path d="M235.624,285.156c-0.292,0 -0.424,0.16 -0.424,0.425l0,10.066l-4.998,-10.145c-0.106,-0.24 -0.238,-0.346 -0.477,-0.346l-2.097,0c-0.265,0 -0.424,0.16 -0.424,0.425l0,17.742c0,0.266 0.159,0.425 0.424,0.425l2.495,0c0.292,0 0.424,-0.159 0.424,-0.425l0,-10.066l4.998,10.146c0.106,0.239 0.238,0.345 0.477,0.345l2.097,0c0.265,0 0.424,-0.159 0.424,-0.425l0,-17.742c0,-0.265 -0.159,-0.425 -0.424,-0.425l-2.495,0Z" style="fill-rule:nonzero;"/><path d="M251.499,285.581c0,-0.266 -0.106,-0.425 -0.425,-0.425l-9.773,0c-0.238,0 -0.398,0.159 -0.398,0.425l0,17.743c0,0.265 0.16,0.424 0.398,0.424l9.773,0c0.319,0 0.425,-0.159 0.425,-0.424l0,-2.654c0,-0.292 -0.106,-0.425 -0.425,-0.425l-6.561,0l0,-3.935l4.994,0c0.266,0 0.425,-0.159 0.425,-0.451l0,-2.627c0,-0.292 -0.159,-0.452 -0.425,-0.452l-4.994,0l0,-4.094l6.561,0c0.319,0 0.425,-0.186 0.425,-0.451l0,-2.654Z" style="fill-rule:nonzero;"/><path d="M257.735,285.156c-2.469,0 -3.823,1.327 -3.823,3.822l0,4.597c0,0.505 0.239,0.824 0.717,0.984l6.376,2.072l0,2.684c0,0.717 -0.372,1.063 -1.063,1.063l-1.436,0c-0.665,0 -1.064,-0.346 -1.064,-1.063l0,-1.116c0,-0.292 -0.133,-0.425 -0.425,-0.425l-2.68,0c-0.265,0 -0.425,0.133 -0.425,0.425l0,1.727c0,2.495 1.354,3.822 3.823,3.822l2.978,0c2.495,0 3.822,-1.327 3.822,-3.822l0,-4.995c0,-0.505 -0.239,-0.824 -0.69,-0.984l-6.429,-2.072l0,-2.259c0,-0.691 0.398,-1.063 1.063,-1.063l1.463,0c0.717,0 1.063,0.372 1.063,1.063l0,1.116c0,0.266 0.159,0.425 0.425,0.425l2.68,0c0.292,0 0.425,-0.159 0.425,-0.425l0,-1.754c0,-2.495 -1.327,-3.822 -3.822,-3.822l-2.978,0Z" style="fill-rule:nonzero;"/><path d="M146.785,316.96c-0.131,0 -0.191,0.061 -0.211,0.191l-0.513,4.204l-0.05,0l-0.986,-4.224c-0.03,-0.11 -0.1,-0.171 -0.221,-0.171l-0.614,0c-0.12,0 -0.191,0.061 -0.221,0.171l-0.985,4.224l-0.05,0l-0.493,-4.204c-0.02,-0.13 -0.091,-0.191 -0.211,-0.191l-0.946,0c-0.14,0 -0.211,0.081 -0.191,0.212l0.925,6.636c0.021,0.131 0.091,0.191 0.222,0.191l1.106,0c0.12,0 0.191,-0.06 0.221,-0.181l0.935,-4.122l0.925,4.122c0.031,0.121 0.101,0.181 0.222,0.181l1.086,0c0.13,0 0.201,-0.06 0.221,-0.181l0.965,-6.646c0.02,-0.131 -0.05,-0.212 -0.191,-0.212l-0.945,0Z" style="fill:#ed174c;fill-rule:nonzero;"/><path d="M154.399,316.96c-0.131,0 -0.191,0.061 -0.211,0.191l-0.513,4.204l-0.05,0l-0.986,-4.224c-0.03,-0.11 -0.1,-0.171 -0.221,-0.171l-0.613,0c-0.121,0 -0.191,0.061 -0.222,0.171l-0.985,4.224l-0.05,0l-0.493,-4.204c-0.02,-0.13 -0.091,-0.191 -0.211,-0.191l-0.945,0c-0.141,0 -0.212,0.081 -0.192,0.212l0.926,6.636c0.02,0.131 0.09,0.191 0.221,0.191l1.106,0c0.121,0 0.191,-0.06 0.221,-0.181l0.935,-4.122l0.925,4.122c0.031,0.121 0.101,0.181 0.222,0.181l1.086,0c0.13,0 0.201,-0.06 0.221,-0.181l0.965,-6.646c0.02,-0.131 -0.05,-0.212 -0.191,-0.212l-0.945,0Z" style="fill:#ed174c;fill-rule:nonzero;"/><path d="M162.013,316.96c-0.131,0 -0.191,0.061 -0.211,0.191l-0.513,4.204l-0.05,0l-0.986,-4.224c-0.03,-0.11 -0.1,-0.171 -0.221,-0.171l-0.613,0c-0.121,0 -0.191,0.061 -0.222,0.171l-0.985,4.224l-0.05,0l-0.493,-4.204c-0.02,-0.13 -0.09,-0.191 -0.211,-0.191l-0.945,0c-0.141,0 -0.212,0.081 -0.191,0.212l0.925,6.636c0.02,0.131 0.09,0.191 0.221,0.191l1.106,0c0.121,0 0.191,-0.06 0.221,-0.181l0.935,-4.122l0.926,4.122c0.03,0.121 0.1,0.181 0.221,0.181l1.086,0c0.13,0 0.201,-0.06 0.221,-0.181l0.965,-6.646c0.02,-0.131 -0.05,-0.212 -0.191,-0.212l-0.945,0Z" style="fill:#ed174c;fill-rule:nonzero;"/><path d="M163.936,323.798c0,0.131 0.07,0.201 0.201,0.201l0.914,0c0.131,0 0.201,-0.07 0.201,-0.201l0,-0.924c0,-0.131 -0.07,-0.201 -0.201,-0.201l-0.914,0c-0.131,0 -0.201,0.07 -0.201,0.201l0,0.924Z" style="fill:#ed174c;fill-rule:nonzero;"/><path d="M167.606,316.96c-0.935,0 -1.447,0.503 -1.447,1.447l0,1.741c0,0.191 0.09,0.312 0.271,0.372l2.414,0.785l0,1.016c0,0.272 -0.141,0.402 -0.402,0.402l-0.544,0c-0.252,0 -0.403,-0.13 -0.403,-0.402l0,-0.423c0,-0.11 -0.05,-0.161 -0.16,-0.161l-1.015,0c-0.101,0 -0.161,0.051 -0.161,0.161l0,0.654c0,0.945 0.512,1.447 1.447,1.447l1.128,0c0.944,0 1.447,-0.502 1.447,-1.447l0,-1.891c0,-0.191 -0.091,-0.312 -0.262,-0.372l-2.434,-0.785l0,-0.855c0,-0.262 0.151,-0.403 0.403,-0.403l0.554,0c0.271,0 0.402,0.141 0.402,0.403l0,0.422c0,0.101 0.061,0.161 0.161,0.161l1.015,0c0.11,0 0.161,-0.06 0.161,-0.161l0,-0.664c0,-0.944 -0.503,-1.447 -1.447,-1.447l-1.128,0Z" style="fill:#ed174c;fill-rule:nonzero;"/><path d="M176.779,316.96c-0.131,0 -0.191,0.061 -0.211,0.191l-0.513,4.204l-0.05,0l-0.986,-4.224c-0.03,-0.11 -0.1,-0.171 -0.221,-0.171l-0.613,0c-0.121,0 -0.191,0.061 -0.221,0.171l-0.986,4.224l-0.05,0l-0.493,-4.204c-0.02,-0.13 -0.09,-0.191 -0.211,-0.191l-0.945,0c-0.141,0 -0.211,0.081 -0.191,0.212l0.925,6.636c0.02,0.131 0.09,0.191 0.221,0.191l1.106,0c0.121,0 0.191,-0.06 0.221,-0.181l0.936,-4.122l0.925,4.122c0.03,0.121 0.1,0.181 0.221,0.181l1.086,0c0.131,0 0.201,-0.06 0.221,-0.181l0.965,-6.646c0.021,-0.131 -0.05,-0.212 -0.191,-0.212l-0.945,0Z" style="fill:#ed174c;fill-rule:nonzero;"/><path d="M178.863,323.999c-0.111,0 -0.161,-0.06 -0.161,-0.161l0,-6.717c0,-0.1 0.05,-0.161 0.161,-0.161l1.045,0c0.1,0 0.16,0.061 0.16,0.161l0,6.717c0,0.101 -0.06,0.161 -0.16,0.161l-1.045,0Z" style="fill:#ed174c;fill-rule:nonzero;"/><path d="M182.422,316.96c-0.934,0 -1.447,0.503 -1.447,1.447l0,1.741c0,0.191 0.091,0.312 0.272,0.372l2.414,0.785l0,1.016c0,0.272 -0.141,0.402 -0.403,0.402l-0.544,0c-0.251,0 -0.402,-0.13 -0.402,-0.402l0,-0.423c0,-0.11 -0.05,-0.161 -0.161,-0.161l-1.015,0c-0.1,0 -0.161,0.051 -0.161,0.161l0,0.654c0,0.945 0.513,1.447 1.447,1.447l1.128,0c0.945,0 1.447,-0.502 1.447,-1.447l0,-1.891c0,-0.191 -0.09,-0.312 -0.261,-0.372l-2.434,-0.785l0,-0.855c0,-0.262 0.151,-0.403 0.402,-0.403l0.554,0c0.272,0 0.403,0.141 0.403,0.403l0,0.422c0,0.101 0.06,0.161 0.16,0.161l1.015,0c0.111,0 0.161,-0.06 0.161,-0.161l0,-0.664c0,-0.944 -0.502,-1.447 -1.447,-1.447l-1.128,0Z" style="fill:#ed174c;fill-rule:nonzero;"/><path d="M187.351,316.96c-0.934,0 -1.447,0.503 -1.447,1.447l0,1.741c0,0.191 0.091,0.312 0.271,0.372l2.414,0.785l0,1.016c0,0.272 -0.14,0.402 -0.402,0.402l-0.544,0c-0.251,0 -0.402,-0.13 -0.402,-0.402l0,-0.423c0,-0.11 -0.051,-0.161 -0.161,-0.161l-1.015,0c-0.101,0 -0.161,0.051 -0.161,0.161l0,0.654c0,0.945 0.513,1.447 1.447,1.447l1.128,0c0.944,0 1.447,-0.502 1.447,-1.447l0,-1.891c0,-0.191 -0.091,-0.312 -0.261,-0.372l-2.435,-0.785l0,-0.855c0,-0.262 0.151,-0.403 0.403,-0.403l0.554,0c0.272,0 0.402,0.141 0.402,0.403l0,0.422c0,0.101 0.061,0.161 0.161,0.161l1.015,0c0.111,0 0.161,-0.06 0.161,-0.161l0,-0.664c0,-0.944 -0.503,-1.447 -1.447,-1.447l-1.128,0Z" style="fill:#ed174c;fill-rule:nonzero;"/><path d="M195.136,323.999c0.161,0 0.221,-0.1 0.151,-0.231l-1.82,-3.56l1.709,-3.006c0.081,-0.131 0.01,-0.242 -0.14,-0.242l-1.056,0c-0.111,0 -0.181,0.061 -0.232,0.151l-1.549,2.665l0,-2.614c0,-0.131 -0.07,-0.202 -0.201,-0.202l-0.964,0c-0.131,0 -0.201,0.071 -0.201,0.202l0,6.636c0,0.131 0.07,0.201 0.201,0.201l0.964,0c0.131,0 0.201,-0.07 0.201,-0.201l0,-1.719l0.373,-0.714l1.267,2.484c0.05,0.1 0.11,0.15 0.231,0.15l1.066,0Z" style="fill:#ed174c;fill-rule:nonzero;"/><path d="M196.284,323.999c-0.11,0 -0.16,-0.06 -0.16,-0.161l0,-6.717c0,-0.1 0.05,-0.161 0.16,-0.161l1.045,0c0.101,0 0.161,0.061 0.161,0.161l0,6.717c0,0.101 -0.06,0.161 -0.161,0.161l-1.045,0Z" style="fill:#ed174c;fill-rule:nonzero;"/><path d="M201.485,316.96c-0.11,0 -0.16,0.061 -0.16,0.161l0,3.811l-1.892,-3.841c-0.041,-0.09 -0.091,-0.131 -0.181,-0.131l-0.794,0c-0.1,0 -0.161,0.061 -0.161,0.161l0,6.717c0,0.101 0.061,0.161 0.161,0.161l0.944,0c0.111,0 0.161,-0.06 0.161,-0.161l0,-3.811l1.892,3.842c0.04,0.09 0.091,0.13 0.181,0.13l0.794,0c0.1,0 0.161,-0.06 0.161,-0.161l0,-6.717c0,-0.1 -0.061,-0.161 -0.161,-0.161l-0.945,0Z" style="fill:#ed174c;fill-rule:nonzero;"/><path d="M207.529,318.408c0,-0.945 -0.512,-1.448 -1.457,-1.448l-2.414,0c-0.1,0 -0.16,0.051 -0.16,0.161l0,6.718c0,0.1 0.06,0.16 0.16,0.16l2.414,0c0.945,0 1.457,-0.502 1.457,-1.447l0,-1.339c0,-0.371 -0.271,-0.653 -0.633,-0.713l0,-0.02c0.362,-0.06 0.633,-0.342 0.633,-0.714l0,-1.358Zm-1.276,1.026c0,0.252 -0.141,0.393 -0.402,0.393l-1.108,0l0,-1.601l1.108,0c0.271,0 0.402,0.141 0.402,0.403l0,0.805Zm0,2.897c0,0.272 -0.141,0.402 -0.402,0.402l-1.108,0l0,-1.58l1.108,0c0.271,0 0.402,0.141 0.402,0.403l0,0.775Z" style="fill:#ed174c;fill-rule:nonzero;"/><path d="M213.184,323.999c0.12,0 0.171,-0.06 0.141,-0.171l-1.67,-6.727c-0.021,-0.1 -0.081,-0.141 -0.171,-0.141l-1.399,0c-0.09,0 -0.151,0.041 -0.171,0.141l-1.67,6.727c-0.03,0.111 0.02,0.171 0.131,0.171l0.986,0c0.09,0 0.141,-0.05 0.161,-0.14l0.312,-1.268l1.891,0l0.322,1.268c0.02,0.09 0.07,0.14 0.161,0.14l0.976,0Zm-1.771,-2.573l-1.268,0l0.634,-2.736l0.634,2.736Z" style="fill:#ed174c;fill-rule:nonzero;"/><path d="M215.406,322.672l1.991,0c0.111,0 0.161,0.06 0.161,0.161l0,1.005c0,0.111 -0.05,0.161 -0.161,0.161l-3.197,0c-0.101,0 -0.161,-0.05 -0.161,-0.161l0,-6.717c0,-0.1 0.06,-0.161 0.161,-0.161l1.045,0c0.111,0 0.161,0.061 0.161,0.161l0,5.551Z" style="fill:#ed174c;fill-rule:nonzero;"/><path d="M219.832,322.672l1.991,0c0.11,0 0.161,0.06 0.161,0.161l0,1.005c0,0.111 -0.051,0.161 -0.161,0.161l-3.197,0c-0.101,0 -0.161,-0.05 -0.161,-0.161l0,-6.717c0,-0.1 0.06,-0.161 0.161,-0.161l1.045,0c0.111,0 0.161,0.061 0.161,0.161l0,5.551Z" style="fill:#ed174c;fill-rule:nonzero;"/><path d="M222.891,323.798c0,0.131 0.07,0.201 0.201,0.201l0.914,0c0.131,0 0.201,-0.07 0.201,-0.201l0,-0.924c0,-0.131 -0.07,-0.201 -0.201,-0.201l-0.914,0c-0.131,0 -0.201,0.07 -0.201,0.201l0,0.924Z" style="fill:#ed174c;fill-rule:nonzero;"/><path d="M229.146,318.407c0,-0.944 -0.513,-1.447 -1.447,-1.447l-1.128,0c-0.945,0 -1.457,0.503 -1.457,1.447l0,4.145c0,0.945 0.512,1.447 1.457,1.447l1.128,0c0.934,0 1.447,-0.502 1.447,-1.447l0,-1.086c0,-0.101 -0.06,-0.161 -0.161,-0.161l-0.944,0c-0.111,0 -0.161,0.06 -0.161,0.161l0,0.855c0,0.272 -0.141,0.402 -0.403,0.402l-0.644,0c-0.262,0 -0.403,-0.13 -0.403,-0.402l0,-3.652c0,-0.262 0.131,-0.402 0.403,-0.402l0.644,0c0.262,0 0.403,0.14 0.403,0.402l0,0.825c0,0.101 0.05,0.161 0.161,0.161l0.944,0c0.101,0 0.161,-0.06 0.161,-0.161l0,-1.087Z" style="fill:#ed174c;fill-rule:nonzero;"/><path d="M232.708,319.837l-1.289,0l0,-2.716c0,-0.1 -0.06,-0.161 -0.16,-0.161l-1.035,0c-0.121,0 -0.171,0.061 -0.171,0.161l0,6.717c0,0.101 0.05,0.161 0.171,0.161l1.035,0c0.1,0 0.16,-0.06 0.16,-0.161l0,-2.675l1.289,0l0,2.675c0,0.101 0.06,0.161 0.161,0.161l1.035,0c0.12,0 0.171,-0.06 0.171,-0.161l0,-6.717c0,-0.1 -0.051,-0.161 -0.171,-0.161l-1.035,0c-0.101,0 -0.161,0.061 -0.161,0.161l0,2.716Z" style="fill:#ed174c;fill-rule:nonzero;"/></g><g><path d="M179.458,193.789c-0.296,-0.697 -0.697,-1.272 -1.237,-1.708c-1.847,-1.533 -5.279,-1.272 -6.307,-1.167c-5.175,3.763 -8.922,9.409 -10.211,15.908c3.311,-6.273 9.81,-11.117 17.755,-13.033Z" style="fill:#ed174c;fill-rule:nonzero;"/><path d="M185.975,186c-3.677,0.157 -7.161,1.098 -10.298,2.648c1.325,0.192 2.788,0.663 4.008,1.673c0.941,0.784 1.638,1.795 2.056,3.015c1.376,-0.227 2.788,-0.366 4.234,-0.419l0,-6.917Z" style="fill:#ed174c;fill-rule:nonzero;"/><path d="M199.601,234.561c0.279,-0.139 7.004,-4.425 4.443,-14.375c-0.732,-2.822 -2.805,-5.314 -4.966,-7.945c-3.276,-4.025 -7.005,-8.573 -7.092,-15.386c0,-0.453 0.018,-0.871 0.053,-1.289c-1.22,-0.192 -2.475,-0.331 -3.764,-0.366l0,42.55c4.095,-0.174 7.841,-1.498 11.326,-3.189Z" style="fill:#ed174c;fill-rule:nonzero;"/><path d="M188.275,186l0,6.9c1.446,0.052 2.858,0.192 4.234,0.418c0.418,-1.22 1.115,-2.23 2.056,-3.014c1.22,-1.011 2.683,-1.481 4.008,-1.673c-3.137,-1.533 -6.621,-2.474 -10.298,-2.631Z" style="fill:#ed174c;fill-rule:nonzero;"/><path d="M161.633,216.492c0.419,4.688 2.91,8.835 5.872,12.267c-0.522,-2.317 -0.575,-5.332 0.471,-9.182c0.906,-3.294 3.084,-5.96 5.401,-8.8c3.189,-3.903 6.5,-7.945 6.587,-13.957c0,-0.278 0,-0.54 -0.018,-0.801c-10.541,2.579 -19.166,10.995 -18.313,20.473Z" style="fill:#ed174c;fill-rule:nonzero;"/><path d="M202.302,190.896c-1.255,-0.122 -4.531,-0.279 -6.291,1.185c-0.522,0.436 -0.941,1.011 -1.219,1.708c7.963,1.916 14.462,6.76 17.738,13.05c-1.29,-6.516 -5.036,-12.179 -10.228,-15.943Z" style="fill:#ed174c;fill-rule:nonzero;"/><path d="M212.617,216.492c0.853,-9.496 -7.772,-17.894 -18.313,-20.456c-0.018,0.262 -0.018,0.523 -0.018,0.802c0.087,6.011 3.381,10.054 6.587,13.957c2.317,2.84 4.513,5.506 5.401,8.799c1.046,3.851 1.011,6.865 0.471,9.183c2.962,-3.433 5.453,-7.597 5.872,-12.285Z" style="fill:#ed174c;fill-rule:nonzero;"/><path d="M174.458,234.561c3.484,1.673 7.422,3.015 11.517,3.189l0,-42.55c-1.272,0.052 -2.544,0.174 -3.764,0.366c0.035,0.418 0.053,0.836 0.053,1.289c-0.087,6.813 -3.816,11.361 -7.092,15.386c-2.161,2.648 -4.234,5.123 -4.966,7.945c-2.701,10.35 4.182,14.341 4.252,14.375Z" style="fill:#ed174c;fill-rule:nonzero;"/></g><rect x="65.262" y="201" width="58.475" height="3.75" style="fill:#0b2c3b;"/><rect x="252.012" y="201" width="58.475" height="3.75" style="fill:#0b2c3b;"/></svg>